<?xml version="1.0" encoding="UTF-8"?>
<svg id="Layer_1" data-name="Layer 1" xmlns="http://www.w3.org/2000/svg" viewBox="0 0 737.64 680.16">
  <defs>
    <style>
      .cls-1 {
        fill: #e82327;
      }

      .cls-1, .cls-2, .cls-3, .cls-4 {
        stroke-width: 0px;
      }

      .cls-5 {
        fill: #fff;
      }

      .cls-2 {
        fill: #fbd22c;
      }

      .cls-6, .cls-3 {
        fill: #212121;
      }

      .cls-4 {
        fill: #0298d2;
      }

      .cls-7 {
        font-family: MS-UIGothic, 'MS UI Gothic';
        font-size: 153.6px;
      }
    </style>
  </defs>
  <g>
    <path class="cls-1" d="m466.04,64.32c-122.6-4.85-215.9,100.72-163.67,227.78-41.11-22.55-62.55-55.85-70.76-96.88C213.92,106.75,266.43,25.71,353.93,2.69c21.55-5.67,39.77-2.89,56.46,13.3,17.24,16.73,36.26,31.64,55.65,48.33Z"/>
    <path class="cls-4" d="m423.79,461.73c-3.4,1.83-8.66,4.47-15.31,7.07-11.42,4.46-34.65,13.95-56.15,7.96-10.34-2.88-20.38-8.9-30.13-19.06-15.07-15.7-33.74-27.96-57.22-46.97,66.31,6.22,118.61-8.86,155.13-58.99,36.53-50.15,34.98-103.75,10.55-159.16,64.65,27.95,91.61,101.43,69.27,186.03-1.31,3.76-2.99,7.94-5.17,12.36-2.25,4.56-4.61,8.55-6.87,11.96-13.2,16.82-25.98,34.04-43.31,47.08-1.89,1.27-3.87,2.54-5.94,3.79-5.13,3.12-10.12,5.73-14.84,7.93Z"/>
    <path class="cls-2" d="m202.74,144.67c-5.19,63.7,11.8,112.93,58.49,150.02,47.3,37.57,99.36,38.4,155.33,17.49-1.24,16.95-11.38,25.09-20.55,32.88-46.77,39.73-100.14,49.34-157.11,27.9-56.64-21.33-90.32-64.01-102.71-123.06-3.58-17.06-.63-32.3,12.57-45.41,17.64-17.52,30.3-39.66,53.97-59.82Z"/>
    <path class="cls-3" d="m316.38,173.04c40.78-69.26,137.05-90.48,207.53-47.93,43.4,26.2,71.22,63.44,78.06,114.57,1.05,7.83,2.13,16.5-3.06,22.87-19.59,24.05-39.86,47.55-63.4,75.44,3.94-63.65-14.85-112.27-62.16-147.41-47.59-35.35-100.5-35.79-156.97-17.54Z"/>
  </g>
  <g>
    <rect class="cls-3" x="241.17" y="528.25" width="496.47" height="151.91" rx="6.13" ry="6.13"/>
    <text class="cls-7" transform="translate(0 647.55)"><tspan class="cls-6" x="0" y="0">Edu</tspan><tspan class="cls-5" x="240.01" y="0">Sankalp</tspan></text>
  </g>
</svg>